<?xml version="1.0" encoding="UTF-8"?>
<svg version="1.1" viewBox="0 0 1600 1600" width="1280" height="1280" xmlns="http://www.w3.org/2000/svg">
<path transform="translate(0)" d="m0 0h1600v1600h-1600v-1600z" fill="#FBFEFE"/>
<path transform="translate(414,623)" d="m0 0c3.83-0.03 7.67-0.05 11.5-0.06 1.08-0.01 2.16-0.02 3.27-0.03 5.86-0.02 11.4 0.27 17.2 1.09 2.46 0.16 4.92 0.31 7.38 0.44 5.21 0.33 10.2 0.89 15.3 2.03 2.46 0.55 4.93 0.98 7.42 1.41 24.6 4.51 50 12.4 69.9 28.1v2l5 2v2h2c14.6 13.8 25 35.6 29 55 0.14 0.65 0.28 1.29 0.43 1.96 5.87 27.3 2.04 52.8-11.4 77-0.76 1.4-0.76 1.4-1.53 2.83-6.06 10.7-14.7 20.6-23.5 29.2h-2l-1 3c-1.86 1.64-3.7 3.14-5.69 4.62-0.58 0.44-1.16 0.88-1.76 1.33-22.9 17-48.2 27.9-76 34.2-3.49 0.76-3.49 0.76-6.55 1.83-1.85 3.7-1.41 8.08-1.56 12.2-0.07 1.69-0.07 1.69-0.13 3.4-0.65 20-0.38 40-0.31 60 0.02 7.39 0.04 14.8 0.06 22.2 0 2.93 0.01 5.87 0.03 8.81 0 1.77 0 3.55 0.01 5.32 0 0.82 0.01 1.64 0.01 2.48 0 1.89-0.05 3.78-0.11 5.67-1 1-1 1-4.29 1.04-1.47-0.04-2.93-0.08-4.39-0.13-0.77-0.02-1.55-0.04-2.34-0.06-1.63-0.05-3.27-0.1-4.9-0.15-2.5-0.07-5.01-0.14-7.51-0.21-1.59-0.04-3.17-0.09-4.75-0.14-0.76-0.02-1.51-0.04-2.28-0.06-5.31-0.17-5.31-0.17-7.54-1.29-0.02-46.6-0.04-93.2-0.05-140v-16.5c-0.01-1.09-0.01-2.18-0.01-3.31 0-17.7-0.01-35.5-0.02-53.2-0.01-18.2-0.01-36.4-0.01-54.5-0.01-11.2-0.01-22.4-0.02-33.7v-23.1c0-4.44 0-8.88-0.01-13.3v-12.2-4.42c-0.01-1.99-0.01-3.99 0-5.98v-3.37c0.12-2.72 0.12-2.72 1.12-5.72z" fill="#001C4B"/>
<path transform="translate(318 655)" d="m0 0c2.85 0.01 5.69-0 8.53-0.01 1.85 0 3.69 0 5.54 0.01 0.83-0.01 1.66-0.01 2.52-0.02 15.1 0.12 15.1 0.12 19.2 4.28 0.25 1.99 0.25 1.99 0.25 4.48 0 0.95 0 1.9 0.01 2.87-0.01 1.05-0.01 2.1-0.02 3.18 0 1.11 0 2.22 0.01 3.36 0 3.74-0.01 7.48-0.02 11.2v8.02c0 5.76-0.01 11.5-0.02 17.3-0.01 8.33-0.02 16.7-0.02 25-0.01 13.5-0.02 27-0.04 40.6-0.02 13.1-0.03 26.3-0.04 39.4v2.45c0 4.06-0.01 8.11-0.01 12.2-0.02 33.7-0.06 67.4-0.1 101-2.8 1.46-4.95 2.3-8.11 2.59-1.18 0.11-1.18 0.11-2.38 0.22-7.83 0.59-15.7 0.89-23.5 1.19-1.06 0.04-2.13 0.09-3.22 0.13-37.6 0.78-80.8-9.95-110-35.1v-2c-0.69-0.21-1.39-0.41-2.11-0.63-3.81-1.8-6.28-4.31-9.2-7.31-0.86-0.87-0.86-0.87-1.74-1.77-15-15.6-27.3-37.2-27.1-59.3 0.17-1.97 0.17-1.97 1.17-2.97 1.76-0.1 3.52-0.13 5.27-0.13 1.15 0 2.29-0.01 3.47-0.01h3.84c1.34 0 2.68-0.01 4.01-0.01 2.89-0.01 5.78-0.01 8.67-0.02 4.58 0 9.15-0.02 13.7-0.04 1.56-0.01 3.13-0.01 4.69-0.02 0.79 0 1.57 0 2.38-0.01 10.6-0.04 21.3-0.07 31.9-0.09 7.18 0 14.4-0.03 21.5-0.06 3.8-0.02 7.6-0.04 11.4-0.03 3.58 0 7.15-0.01 10.7-0.04 1.93-0.01 3.86 0 5.8 0.01 6.67-0.07 11.2-0.35 16.6-4.55 2.18-4.96 2.31-9.92 2.3-15.3 0.01-1.15 0.01-1.15 0.01-2.33 0.01-1.62 0.01-3.24 0.01-4.86-0.01-2.46 0.02-4.91 0.04-7.37v-4.75c0.02-1.09 0.02-1.09 0.03-2.19-0.05-5.34-1.19-9.35-3.39-14.2-4.73-4.5-7.85-5.14-14.2-5.06-1.64 0.01-3.27 0.02-4.91 0.02-1.35 0.01-1.35 0.01-2.72 0.02-24 0.16-47.9-0.09-71.9-0.35-4.06-0.05-8.13-0.09-12.2-0.13-4.85-0.04-9.71-0.1-14.6-0.15l-5.46-0.06c-2.51-0.02-5.02-0.05-7.53-0.08-1.12-0.01-1.12-0.01-2.26-0.02-5.09-0.08-5.09-0.08-7.32-1.19-3.17-15.1 5.74-32.7 13.8-45.3 6.08-9.07 12.8-16.8 21.2-23.7 0.95-0.77 1.89-1.55 2.87-2.34 32.4-25.9 71.4-36.1 112-35.9z" fill="#001C4B"/>
<path transform="translate(354,591)" d="m0 0c0.99 4.04 1.04 7.68 0.88 11.8-0.05 1.29-0.1 2.59-0.15 3.92-0.05 1.35-0.11 2.71-0.17 4.06-0.05 1.38-0.1 2.75-0.16 4.13-0.13 3.35-0.26 6.71-0.4 10.1-0.64 0.01-1.28 0.02-1.94 0.03-6.75 0.11-13.5 0.22-20.2 0.34-2.51 0.05-5.02 0.09-7.53 0.13-78.2 1.26-156 18-214 73.5-0.63 0.58-1.26 1.16-1.91 1.75-23.4 22.2-39.6 56-41.1 88.2-0.47 35.2 15 66.2 38 92.1 1.79 1.67 3.62 3.22 5.53 4.75 1.47 1.25 1.47 1.25 3.35 3.69 3.2 3.86 7.12 6.56 11.1 9.56l3.48 2.73c9.3 7.25 19 13.4 29.3 19 1.98 1.1 3.95 2.23 5.91 3.38 10.3 5.9 21.3 9.8 32.5 13.8 2.74 1.01 5.45 2.09 8.15 3.18 18.4 7.45 39.2 11.2 58.8 13.9 1.1 0.16 2.21 0.31 3.35 0.48 1.14 0.15 2.28 0.3 3.46 0.46 1.2 0.16 2.4 0.32 3.63 0.49 21.5 2.64 43.1 2.7 64.8 2.52 0.96 0 1.92-0.01 2.9-0.02 1.82-0.01 3.64-0.03 5.46-0.05 2.07-0.02 4.14 0.02 6.21 0.06 1 1 1 1 1.11 4.14 0 1.39 0 2.79-0.01 4.18 0 1.09 0 1.09-0.01 2.21 0 2.35-0.01 4.69-0.03 7.03 0 1.59-0.01 3.17-0.01 4.76-0.01 3.89-0.03 7.79-0.05 11.7-4.46 0.2-8.92 0.38-13.4 0.56-1.27 0.06-2.54 0.11-3.85 0.17-1.21 0.05-2.42 0.1-3.67 0.15-1.12 0.05-2.24 0.09-3.39 0.14-2.71-0.02-2.71-0.02-4.71-1.02-2.72-0.12-5.43-0.19-8.15-0.21-1.73-0.03-3.45-0.05-5.18-0.08-0.91-0.01-1.83-0.03-2.77-0.04-72.9-1.15-145-14.7-208-52.7-1.61-0.95-1.61-0.95-3.26-1.93-7.72-4.72-14.7-10.4-21.7-16.1-0.81-0.65-1.61-1.3-2.45-1.97-1.56-1.29-3.06-2.65-4.55-4.03v-2c-0.93-0.37-0.93-0.37-1.88-0.75-2.52-1.49-2.84-2.69-4.12-5.25-0.6-0.28-1.19-0.57-1.81-0.86-15.6-8.11-28.6-35-35.2-50.1-0.67-1.49-0.67-1.49-1.34-3-6.19-14.2-10.2-29.6-11.7-45-0.25-0.95-0.25-0.95-0.51-1.92-1.04-4.43-0.67-9.11-0.68-13.6-0.01-1.04-0.02-2.07-0.03-3.14-0.02-6.14 0.51-11.8 1.73-17.9 0.61-3.04 0.95-6.1 1.3-9.18 1.08-7.83 3.51-14.8 6.19-22.2 0.67-2 1.34-4 2-6 4.71-14 12.8-27.5 22-39 0.72-0.91 1.44-1.82 2.18-2.76 15.5-19.3 33-35.1 54.1-48.2 1.69-1.05 3.36-2.12 5.03-3.2 17.8-11.3 37.5-20.1 57.4-27.1 2.16-0.76 4.31-1.55 6.47-2.36 10.1-3.65 20.4-6.22 30.9-8.77 0.72-0.18 1.43-0.36 2.17-0.54 7.16-1.76 14.2-3.38 21.6-3.93 2.42-0.23 4.72-0.68 7.09-1.18 6.04-1.28 12.1-1.93 18.2-2.6 1.12-0.13 2.24-0.25 3.4-0.38 4.07-0.46 8.14-0.91 12.2-1.35 3.47-0.38 6.93-0.79 10.4-1.27 4.74-0.53 9.44-0.46 14.2-0.42 5.54 0.03 11-0.21 16.6-0.52 15.7-0.84 31.5-0.59 47.2-0.5z" fill="#D41B1E"/>
<path transform="translate(879 622)" d="m0 0c1.03 0.03 2.05 0.05 3.11 0.08 1.9 0.08 1.9 0.08 3.83 0.17 0.83 0.04 1.65 0.07 2.51 0.11 5.83 0.27 11.7 0.57 17.5 0.89 1.43 2.87 1.12 5.33 1.11 8.54v2.06c0 2.29-0.01 4.59-0.01 6.88-0.01 1.64-0.01 3.28-0.01 4.92 0 3.54-0.01 7.08-0.02 10.6-0.01 5.63-0.02 11.3-0.02 16.9-0.01 13-0.04 26.1-0.06 39.1-0.02 11.9-0.04 23.7-0.05 35.6 0 4.67-0.01 9.33-0.02 14-0.04 18.1-0.01 36.1 0.53 54.2 0.03 0.7 0.05 1.39 0.07 2.11 1.2 39.3 8.25 78.3 34.5 109 0.56 0.66 1.12 1.32 1.69 2 11.4 12.3 27.6 21.6 44.3 23 0.95 0.08 1.91 0.16 2.89 0.25 17.5 0.75 32.3-6.98 45.1-18.2 0.67-0.59 1.35-1.19 2.05-1.8 13.8-13 22.4-30.3 28.8-47.8 0.38-1.02 0.77-2.04 1.16-3.1 2.27-6.4 3.68-12.6 4.57-19.3 0.39-2.86 0.9-5.68 1.46-8.51 2.28-12.6 2.09-25.2 2.11-37.9 0.01-2.06 0.01-4.11 0.02-6.17 0.02-4.4 0.03-8.8 0.04-13.2 0.01-6.96 0.04-13.9 0.06-20.9 0.07-19.8 0.13-39.6 0.18-59.3 0.03-10.9 0.07-21.9 0.11-32.8 0.03-6.92 0.05-13.8 0.06-20.8 0.01-4.3 0.02-8.59 0.04-12.9 0.01-1.99 0.01-3.99 0.02-5.98 0-2.72 0.01-5.44 0.03-8.16-0.01-0.79-0.01-1.58-0.01-2.4 0.03-3.79 0.14-6.72 2.28-9.93 26.2-1.67 26.2-1.67 36 0 2.26 4.52 1.42 10.5 1.56 15.5 0.02 0.7 0.04 1.4 0.06 2.12 0.43 14.6 0.49 29.2 0.5 43.9 0.01 1.1 0.01 2.2 0.01 3.33 0.01 3.17 0 6.34 0 9.51 0 0.95 0 1.89 0.01 2.86-0.01 0.9-0.01 1.79-0.01 2.71 0 0.77 0 1.54-0.01 2.33-0.1 2.36-0.34 4.63-0.63 6.96-0.56 4.89-0.61 9.71-0.57 14.6 0 0.94 0 1.88 0.01 2.85 0 2.03 0.01 4.06 0.02 6.09 0.02 3.25 0.03 6.51 0.04 9.76 0.02 9.25 0.06 18.5 0.1 27.7 0.32 67.1-0.06 134-49.1 186-0.94 1.01-0.94 1.01-1.89 2.05-13.1 13.7-29.8 24-48.1 29-1.13 0.36-2.26 0.71-3.42 1.08-6.33 1.56-12.9 1.21-19.3 1.17-1.3 0.01-2.59 0.02-3.92 0.02-11.5-0.02-22-1.11-32.6-5.77-0.81-0.35-1.62-0.7-2.45-1.06-13.4-5.98-24.5-13.7-34.9-24-1.29-1.27-2.61-2.52-3.94-3.76-5.61-5.37-10.1-11.2-14.5-17.6-0.56-0.82-1.13-1.63-1.71-2.48-8.99-13.6-16.1-28.1-21.3-43.5-0.37-1.04-0.73-2.08-1.11-3.14-3.36-10-5.1-20.4-6.89-30.9-0.22-1.21-0.44-2.42-0.66-3.66-1.28-8.1-1.61-16.2-1.88-24.4-0.05-1.27-0.09-2.54-0.14-3.85-0.43-13.8-0.47-27.6-0.46-41.4 0.01-3.65 0-7.31 0-11 0-6.15 0-12.3 0.01-18.5v-18.6c-0.02-18.5 0.01-37 0.1-55.5 0.02-4.11 0.03-8.22 0.05-12.3 0.02-6.9 0.06-13.8 0.14-20.7 0.02-2.26 0.04-4.53 0.04-6.79 0.01-3.08 0.05-6.14 0.09-9.22 0-0.89 0-1.79-0.01-2.71 0.06-2.27 0.14-4.27 0.72-6.46 3.29-2.83 5.79-3.38 10.1-3.25z" fill="#001C4B"/>
<path transform="translate(1459 623)" d="m0 0c1.32 0 1.32 0 2.68 0.01 0.9 0.01 1.8 0.02 2.73 0.03 0.93 0 1.86 0 2.81 0.01 2.27 0.01 4.55 0.03 6.82 0.05 1.31 3.95 1.12 7.71 1.1 11.8-0.01 1.29-0.01 1.29-0.01 2.61 0 2.75-0.02 5.5-0.03 8.26 0 1.86-0.01 3.73-0.01 5.59-0.01 4.57-0.03 9.15-0.05 13.7-1.77 0.01-1.77 0.01-3.58 0.02-11.1 0.08-22.2 0.17-33.4 0.27-5.72 0.05-11.4 0.09-17.2 0.13-5.52 0.04-11 0.08-16.6 0.14-2.11 0.01-4.22 0.03-6.32 0.04-2.95 0.02-5.9 0.05-8.85 0.08-0.87 0-1.74 0-2.64 0.01-1.21 0.01-1.21 0.01-2.44 0.03-1.05 0.01-1.05 0.01-2.12 0.02-2.31 0.3-3.95 1.12-5.97 2.26-0.05 14.8-0.08 29.7-0.1 44.5-0.01 6.88-0.03 13.8-0.05 20.6-0.02 6.64-0.04 13.3-0.04 19.9 0 2.54-0.01 5.08-0.02 7.61-0.02 3.55-0.02 7.09-0.02 10.6-0.01 1.05-0.01 2.11-0.02 3.2 0 0.97 0.01 1.93 0.01 2.92 0 1.26 0 1.26-0.01 2.54 0.07 2.26 0.07 2.26 2.25 4.03 2.38 0.28 2.38 0.28 5.25 0.19 1.19-0.02 2.39-0.04 3.62-0.06 2.84-0.08 5.67-0.21 8.51-0.36 14.4-0.79 28.8-0.84 43.2-0.74 0.83 0.01 1.66 0.01 2.51 0.02 1.55 0.01 3.11 0.02 4.66 0.04 3.59 0.01 6.97-0.16 10.5-0.72 3.76-0.37 5.5-0.12 8.78 1.63 0.02 5.37 0.04 10.8 0.05 16.1 0.01 1.83 0.02 3.66 0.02 5.49 0.02 2.63 0.02 5.25 0.03 7.88 0 0.82 0.01 1.64 0.01 2.49 0 5.79 0 5.79-1.11 8.02-6.3 0.02-12.6 0.04-18.9 0.05-2.13 0.01-4.27 0.01-6.4 0.02-10.5 0.05-21 0.05-31.5-0.85-6.02-0.42-12-0.33-18.1-0.28-1.27 0-2.54 0-3.85 0.01-3.09 0.01-6.18 0.03-9.27 0.05-0.89 15.4-1.14 30.6-1.1 46 0 2.32 0 4.65 0.01 6.97 0 6.04 0.01 12.1 0.02 18.1 0.01 6.2 0.02 12.4 0.02 18.6 0.01 12.1 0.03 24.2 0.05 36.3 3.17 1.05 5.49 1.15 8.81 1.2 1.21 0.02 2.41 0.04 3.64 0.06 1.31 0.02 2.62 0.04 3.97 0.05 1.38 0.02 2.76 0.05 4.14 0.07 2.91 0.04 5.82 0.08 8.73 0.12 3.63 0.05 7.27 0.1 10.9 0.16 3.55 0.05 7.11 0.1 10.7 0.15 0.7 0.01 1.41 0.02 2.14 0.03 7.94 0.11 15.9 0.17 23.8 0.11 0.71 0 1.42 0 2.15-0.01 3.38-0.02 6.76-0.05 10.1-0.1 6.03-0.04 11.2 0.02 16.9 2.16 1.18 14 1.1 28 1 42-2.76 1.38-4.69 0.92-7.76 0.66-1.18-0.1-2.35-0.19-3.56-0.29-1.26-0.1-2.51-0.2-3.81-0.31-9.42-0.74-18.7-1.27-28.2-1.04-2.71-0.02-2.71-0.02-4.71-1.02-1.96-0.13-3.92-0.21-5.88-0.25-1.22-0.03-2.44-0.06-3.69-0.09-1.32-0.04-2.64-0.07-3.99-0.1-9.7-0.26-19.3-0.7-29-1.56-10.5-0.94-20.9-1.38-31.4-1.66-20.2-0.56-20.2-0.56-23-3.34-1.69-7.8-1.14-16.2-1.13-24.2-0.01-1.42-0.01-2.83-0.01-4.25-0.01-3.87-0.01-7.74-0.01-11.6 0-4.19 0-8.37-0.01-12.6 0-8.19-0.01-16.4-0.01-24.6v-20c-0.01-18.8-0.02-37.7-0.02-56.6v-3.08-3.08c0-16.5-0.01-33-0.02-49.5-0.01-16.9-0.02-33.9-0.02-50.8 0-9.51 0-19-0.01-28.5-0.01-8.09-0.01-16.2-0.01-24.3 0.01-4.13 0.01-8.26 0-12.4-0.01-3.77-0.01-7.55 0-11.3 0-2.02-0.01-4.04-0.01-6.06 0-1.19 0.01-2.38 0.01-3.61v-3.13c0.25-2.55 0.25-2.55 2.25-5.55 2.37-0.48 2.37-0.48 5.43-0.63 1.16-0.06 2.33-0.13 3.53-0.19 1.29-0.06 2.58-0.12 3.91-0.18 2.1-0.11 4.19-0.23 6.28-0.35 1.51-0.08 3.02-0.16 4.54-0.24 8.75-0.47 17.5-1.1 26.2-1.72 16.4-1.15 32.9-2.19 49.3-3.05 1.03-0.05 1.03-0.05 2.08-0.11 1.82-0.09 3.64-0.19 5.46-0.28 3.2-0.2 3.2-0.2 6.31-0.77 2.68-0.45 5.13-0.6 7.85-0.58z" fill="#001C4B"/>
<path transform="translate(1270,623)" d="m0 0c2.59 2.59 3.39 5.45 4.57 8.84 0.24 0.67 0.47 1.35 0.72 2.04 0.5 1.43 1.01 2.86 1.51 4.3 0.76 2.18 1.53 4.36 2.3 6.55l1.47 4.17c0.23 0.65 0.45 1.3 0.69 1.97 1.05 3.02 2.04 6.01 2.74 9.13-6.07 3.07-12.2 6.05-18.4 8.94-27.6 13-60.7 30.1-72.6 60.1-3 9.09-1.7 15.8 2.5 24.2 0.42 0.79 0.85 1.58 1.28 2.39 1.22 2.36 1.22 2.36 2.19 5.09 0.34 0.75 0.68 1.5 1.03 2.27 0.99 0.33 1.98 0.66 3 1 2.69 2.44 2.69 2.44 5 5v2h2c1.69 1.65 3.35 3.32 5 5 2.2 1.92 4.47 3.74 6.75 5.56 0.65 0.52 1.29 1.03 1.96 1.57 6.93 5.47 14.2 10.5 21.4 15.6 4.35 3.03 8.64 6.14 12.9 9.31 0.6 0.45 1.2 0.9 1.82 1.36 1.97 1.47 3.92 2.96 5.87 4.45 0.62 0.47 1.25 0.94 1.89 1.42 1.53 1.19 2.98 2.47 4.42 3.77v3c0.87 0.34 0.87 0.34 1.76 0.69 12.1 7.07 20.6 29.2 24.4 42.1 4.23 20.3-2.56 40-13.1 57.2-2.82 3.84-5.85 7.43-9 11-0.68 0.8-1.37 1.61-2.07 2.44-13.5 15.6-31.2 27.3-48.9 37.6-0.74 0.43-1.48 0.86-2.24 1.3-11.3 6.53-22.9 12.3-34.8 17.7-0.66 0.3-1.31 0.6-1.99 0.91-3.89 1.72-6.73 2.67-11 2.09-2.73-2.16-3.67-4.3-4.75-7.56-1.28-3.72-2.61-7.4-4.06-11.1-0.32-0.81-0.64-1.61-0.97-2.44-0.64-1.61-1.29-3.22-1.93-4.83-0.3-0.75-0.59-1.5-0.9-2.27-0.27-0.66-0.53-1.33-0.81-2.02-0.58-1.82-0.58-1.82-0.58-4.82 0.74-0.33 1.48-0.66 2.24-1 28.3-12.7 56.7-26.7 78.8-49 0.76-0.75 1.51-1.49 2.29-2.26 7.97-8.32 13.7-19 13.7-30.7-1.48-9.62-5.9-16.6-12-24-0.52-0.7-1.04-1.39-1.58-2.11-4.16-5.26-9.27-8.86-14.8-12.6-1.57-1.06-3.1-2.19-4.62-3.32v-2c-1.1-0.4-1.1-0.4-2.22-0.8-2.78-1.2-4.87-2.56-7.28-4.39-0.83-0.61-1.65-1.23-2.5-1.86-0.84-0.65-1.69-1.29-2.56-1.95l-5.07-3.81c-0.74-0.57-1.49-1.13-2.25-1.71-1.98-1.38-3.93-2.47-6.12-3.48v-2c-0.59-0.28-1.18-0.55-1.79-0.84-20.7-10.9-36.2-34.5-43.2-56.2-4.77-19.6-0.76-37.6 8.7-55.1 16.6-27.1 43-44.8 70.3-59.9 0.74-0.41 1.48-0.82 2.24-1.24 11.8-6.5 23.9-12.7 36.8-16.8z" fill="#001F50"/>
<path transform="translate(651 622)" d="m0 0c1.41 0.07 1.41 0.07 2.85 0.15 0.97 0.05 1.95 0.11 2.95 0.17 1.92 0.1 3.84 0.2 5.76 0.3 0.93 0.05 1.86 0.1 2.82 0.15 2.63 0.1 5.24 0.11 7.88 0.08 3.85 0.03 3.85 0.03 4.85 1.03 0.1 1.47 0.13 2.95 0.13 4.43 0 0.97 0.01 1.93 0.01 2.93 0 1.07-0.01 2.15-0.01 3.26 0.01 1.71 0.01 1.71 0.01 3.45v9.6 8.33c0 7.7 0 15.4-0.01 23.1v17.2c-0.03 98.9-0.61 198-1.13 297-4.62 0.05-9.25 0.08-13.9 0.11-1.57 0.01-3.14 0.02-4.72 0.04-2.26 0.02-4.52 0.04-6.79 0.04-0.7 0.01-1.4 0.02-2.12 0.04-3.64 0-6.45-0.1-9.49-2.23-1.17-2.88-1.13-5.73-1.13-8.81 0-0.98 0-1.95-0.01-2.95 0.01-1.07 0.01-2.14 0.02-3.24v-3.44c0.05-9.69 0.32-19.4 0.62-29.1 0.39-12.5 0.61-25 0.63-37.4 0-0.73 0-1.46 0.01-2.21v-6.19c-0.01-1.17-0.01-2.34-0.01-3.54-0.02-2.98-0.02-2.98-0.63-5.28-0.67-3.81-0.64-7.58-0.63-11.4v-2.59c-0.01-2.81 0-5.63 0-8.44v-5.88-12.3c0.01-5.26 0.01-10.5 0-15.8v-12.1-5.82c-0.01-2.71 0-5.41 0-8.12v-2.44c0.01-3.23 0.1-5.81 1.13-8.9l-1-2c-0.09-2.03-0.12-4.07-0.12-6.11-0.01-1.3-0.01-2.6-0.01-3.94v-4.36-4.57c-0.01-4.14 0-8.28 0-12.4v-13-21.8c0.01-8.41 0.01-16.8 0-25.2v-21.6-12.9c-0.01-4.06 0-8.11 0-12.2v-4.47c0-2.03 0-4.06 0.01-6.09v-3.45c0.12-2.78 0.12-2.78 1.12-5.78 0.03-2.58-0.06-5.14-0.16-7.72 0.16-2.28 0.16-2.28 2.16-4.28 3.04-1.06 5.7-1.06 8.89-0.88z" fill="#001C4B"/>
<path transform="translate(452,660)" d="m0 0c20.6-2.11 46.6 14.8 62 27 14.9 12.8 26.4 30.6 30 50 0.23 1.13 0.45 2.27 0.69 3.44 1.68 19.2-3.5 37.1-15.2 52.5-1.15 1.36-2.32 2.72-3.5 4.06-0.58 0.72-1.16 1.44-1.76 2.19-5.57 6.71-12.2 11.8-19.2 16.8-1.22 0.91-1.22 0.91-2.47 1.84-12.6 8.73-33.8 19.8-49.5 19.2v-2h-2c-0.02-22.5-0.04-45-0.05-67.6-0.01-10.4-0.01-20.9-0.03-31.4-0.01-9.11-0.01-18.2-0.01-27.3-0.01-4.83-0.01-9.65-0.02-14.5v-13.6c0-1.67-0.01-3.34-0.01-5.01v-6.81-3.86c0.12-2.95 0.12-2.95 1.12-4.95z" fill="#FBFEFE"/>
<path transform="translate(879 622)" d="m0 0c1.03 0.03 2.05 0.05 3.11 0.08 1.9 0.08 1.9 0.08 3.83 0.17 0.83 0.04 1.65 0.07 2.51 0.11 5.83 0.27 11.7 0.57 17.5 0.89 1.43 2.87 1.12 5.33 1.11 8.54v2.06c0 2.29-0.01 4.59-0.01 6.88-0.01 1.64-0.01 3.28-0.01 4.92 0 3.54-0.01 7.08-0.02 10.6-0.01 5.63-0.02 11.3-0.02 16.9-0.01 13-0.04 26.1-0.06 39.1-0.02 11.9-0.04 23.7-0.05 35.6 0 4.67-0.01 9.33-0.02 14-0.04 18.1-0.01 36.1 0.53 54.2 0.02 0.69 0.04 1.39 0.06 2.1 0.52 17.6 2.05 34.8 5.49 52.1h-4v-2h-2l-1-4c-3.15-0.33-3.15-0.33-5.38 2.06-2.62 1.94-2.62 1.94-5.12 1.63-1.24-0.34-1.24-0.34-2.5-0.69-1.68 0.28-3.35 0.61-5 1-3 0-3 0-4.58-1.21-1.66-2.09-2.33-3.93-3.11-6.48-0.25-0.81-0.5-1.61-0.76-2.45-0.18-0.61-0.37-1.23-0.55-1.86l-2 3-1-3h-2c1.83 2.97 1.83 2.97 4 5-0.52 0.6-1.03 1.2-1.56 1.81-0.48 0.72-0.95 1.45-1.44 2.19l1 3c-0.44 2.19-0.44 2.19-1 4h2c1.12 5.63 1.12 5.63 0 9l2 1c0.68 1.73 0.68 1.73 1.29 3.96 0.22 0.8 0.43 1.6 0.66 2.43 0.22 0.84 0.44 1.68 0.67 2.55 0.23 0.83 0.46 1.67 0.7 2.53 1.68 6.22 1.68 6.22 1.68 8.53h-2c-4.75-13.1-8.43-26-10.6-39.7-0.32-1.99-0.67-3.97-1.02-5.94-1.3-8.11-1.62-16.2-1.89-24.4-0.05-1.27-0.09-2.54-0.14-3.85-0.43-13.8-0.47-27.6-0.46-41.4 0.01-3.65 0-7.31 0-11 0-6.15 0-12.3 0.01-18.5v-18.6c-0.02-18.5 0.01-37 0.1-55.5 0.02-4.11 0.03-8.22 0.05-12.3 0.02-6.9 0.06-13.8 0.14-20.7 0.02-2.26 0.04-4.53 0.04-6.79 0.01-3.08 0.05-6.14 0.09-9.22 0-0.89 0-1.79-0.01-2.71 0.06-2.27 0.14-4.27 0.72-6.46 3.29-2.83 5.79-3.38 10.1-3.25z" fill="#001C4B"/>
<path transform="translate(878,851)" d="m0 0h1c0.27 0.99 0.53 1.97 0.8 2.99 0.36 1.3 0.72 2.59 1.08 3.89 0.26 0.97 0.26 0.97 0.52 1.97 1.1 3.96 1.1 3.96 3.6 7.15 3.01 0.09 3.01 0.09 5.94-0.56 3.06-0.44 3.06-0.44 5.06 0.31 2.03 0.47 2.03 0.47 3.58-0.79 1.52-1.27 2.97-2.61 4.42-3.96l4 4-1 2h2v2h4c0.4 1.22 0.8 2.45 1.21 3.71 9.74 29.1 23.9 57.8 52.5 72.4 6.9 3.28 13.6 5.27 21.3 5.84 1.43 0.12 1.43 0.12 2.88 0.25 10.1 0.44 19.8-2.34 29.1-6.25l2 2c2.57 0.65 2.57 0.65 5 1l1-4c2.97 0.99 2.97 0.99 6 2l1-3c2.76-2.76 5.21-2.58 9-3l2-5h4c0.8-0.33 1.61-0.66 2.44-1 2.56-1 2.56-1 5-0.94 2.75 0.12 2.75 0.12 5.62-1.62 2.94-1.44 2.94-1.44 5.19-1.44 1.75 1 1.75 1 3 3.25 0.75 2.75 0.9 4.92 0.75 7.75-0.13 2.01-0.13 2.01 0.75 3.75 0.4 3.61-1.61 5.46-3.75 8.25-0.98 1.02-1.98 2.02-3 3l-1 2h-2l-2 4h-2v4c-1.78 1.79-3.42 3.2-5.44 4.69-0.57 0.43-1.15 0.86-1.74 1.3-10.5 7.63-22.3 13.6-34.8 17-1.13 0.36-2.26 0.71-3.42 1.08-6.33 1.56-12.9 1.21-19.3 1.17-1.29 0.01-2.59 0.02-3.92 0.02-11.5-0.02-22-1.11-32.6-5.77-0.81-0.35-1.61-0.7-2.44-1.06-13.4-5.98-24.5-13.7-34.9-24-1.29-1.27-2.61-2.52-3.93-3.77-5.62-5.36-10.1-11.2-14.5-17.6-0.56-0.82-1.12-1.63-1.7-2.48-16.6-25-16.6-25-18-38.1-0.92-6.38-2.43-12.6-5.34-18.4-1.24-6.52-1.24-6.52 0-9h-2c-0.97-5.37-0.97-5.37-1-8 1.44-2 1.44-2 3-3h-3v-5h2l1 2 1-7z" fill="#001F50"/>
<path transform="translate(471,629)" d="m0 0v2c1.48 0.03 2.96 0.05 4.44 0.06 1.23 0.02 1.23 0.02 2.49 0.04 2.06 0.13 2.06 0.13 3.07-1.1h-5v-1c19.4 0.41 38.2 8.72 55.1 17.6 0.69 0.36 1.38 0.72 2.09 1.1 4.53 2.44 8.73 5.1 12.8 8.28v2l5 2v2h2c17.6 16.7 26.8 41.4 30.7 64.7 0.19 1.17 0.19 1.17 0.4 2.37 0.83 5.37 1.02 10.5 0.91 15.9h-2v3c-1.75 1.12-1.75 1.12-4 2-2.25-0.88-2.25-0.88-4-2 0.74-0.68 0.74-0.68 1.5-1.38 1.73-1.5 1.73-1.5 1.5-3.62-0.71-1.42-1.46-2.81-2.25-4.19-0.45-0.79-0.9-1.59-1.37-2.41-0.46-0.79-0.91-1.58-1.38-2.4-0.4-0.71-0.81-1.42-1.22-2.15-0.92-1.62-1.85-3.23-2.78-4.85-0.58 0.31-1.15 0.62-1.75 0.94-2.25 1.06-2.25 1.06-4.31 1.31-2.25 0.64-2.25 0.64-3.56 3.44-1.28 3.08-2.39 6.13-3.38 9.31-1.12 3.49-2.26 6.77-4 10-1.98-0.5-1.98-0.5-4-1v2h-2c-0.13-0.67-0.26-1.35-0.4-2.04-0.6-3.12-1.23-6.23-1.85-9.34-0.2-1.06-0.41-2.12-0.62-3.21-4.62-22.8-18.1-43.7-37.6-56.8-0.85-0.54-1.69-1.09-2.56-1.65-0.79-0.51-1.59-1.03-2.4-1.56-13.2-8.23-28.2-15-43.6-17.4-1.67-0.33-3.33-0.66-5-1v10h-2c0.01 1.4 0.01 1.4 0.02 2.82 0.16 34.2 0.16 34.2-1.02 50.2-1.96-1.18-1.96-1.18-4-3-0.57-2.41-0.57-2.41-0.69-5.06-0.27-5.39-1.31-7.01-5.25-10.7-3.31-3.26-5.01-5.64-6.06-10.2-0.63-1.35-1.3-2.68-2-4-1.33-2.67-2.67-5.33-4-8h-2c-4.65-6.97-3.64-18.9-3-27 1.01-2.88 1.01-2.88 2-5l2 1 1-5h6v-2h2c0.36-0.94 0.36-0.94 0.73-1.9 1.61-2.66 2.69-2.91 5.65-3.72 3.08-0.88 5.77-1.91 8.62-3.38 1.32-0.37 2.66-0.71 4-1v-2c5.77-1.7 11-3.17 17-3z" fill="#001F50"/>
<path transform="translate(1559,612)" d="m0 0c0.82 0.11 1.64 0.21 2.49 0.32 7.76 1.19 12.2 4.5 17.8 9.87 5.63 9.05 7.92 19.9 6.25 30.4-2.72 9.88-9.86 16.4-18.5 21.4-2.94 1.38-2.94 1.38-6 2-1.18 0.25-1.18 0.25-2.39 0.5-8.96 1.42-15.7-1.35-23.2-6.15-7.21-5.28-12.3-11.6-14.4-20.4-0.84-10.6 2.18-19.6 8.25-28.2 7.82-8 18.6-12.2 29.8-9.81z" fill="#FBFEFE"/>
<path transform="translate(539,810)" d="m0 0v3h2c-0.02 1.2-0.04 2.39-0.06 3.62-0.02 2.77 0.18 4.94 0.75 7.69 0.1 0.89 0.2 1.78 0.31 2.69-1.38 1.56-1.38 1.56-3 3-0.04 0.74-0.09 1.47-0.13 2.23-1.38 4.38-4.72 6.04-8.43 8.52-0.77 0.52-1.54 1.05-2.33 1.59-18.7 12.6-41.2 25.1-64.1 26.7v-2c-1.08 0.28-1.08 0.28-2.19 0.56-2.94 0.46-4.95 0.18-7.81-0.56 0-3.4 0.48-7.48 3-10 2.33-0.04 4.67-0.04 7 0-0.21-0.87-0.41-1.73-0.62-2.62-0.59-5.27 0.89-8.69 4.12-12.8 0.82-0.86 1.65-1.73 2.5-2.62h2v-2c1.98 0.33 3.96 0.66 6 1v-4l-2-2v-2c0.91-0.38 1.81-0.75 2.75-1.14 6.4-2.68 12.6-5.41 18.6-8.98 1.67-0.88 1.67-0.88 3.67-0.88v2c0.93-0.31 1.86-0.62 2.81-0.94 2.07-0.68 4.13-1.37 6.19-2.06v-2c7.92-6.39 19.4-11.4 29-6z" fill="#001F50"/>
<path transform="translate(1281,850)" d="m0 0c4.09 2.43 5.43 4.62 6.69 9.06 0.21 0.86 0.42 1.72 0.63 2.6 0.62 2.58 0.62 2.58 2.68 5.34 1.03 3.8 1.11 7.39 1.06 11.3-0.01 1.07-0.02 2.14-0.02 3.24-0.02 0.81-0.03 1.62-0.04 2.45l2 1v3l1-3h3v-11h1c0.89 18.2-5.15 37.6-16.9 51.8-1.02 1.09-1.02 1.09-2.06 2.19-3.81-2.77-4.07-6.63-5-11h-2c0.33-0.62 0.66-1.24 1-1.88 1.14-2.03 1.14-2.03 1-4.12-3.51 3.21-3.51 3.21-6 7.19-1.44 2.62-3.22 2.93-6 3.81-0.99 0.33-1.98 0.66-3 1-2.33 0.04-4.67 0.04-7 0l-1 2c-1.12 0.04-2.25 0.07-3.4 0.11-8.03 0.33-15.1 0.75-22.6 3.89l-2-4c0.67-0.45 1.33-0.9 2.02-1.36 14.8-10.3 27.1-22.8 31.5-40.6 2.19-9.01 2.19-9.01 4.5-13 2.69-0.94 2.69-0.94 5-1-0.35-0.99-0.7-1.98-1.06-3-1.25-4.26-0.7-7.66 0.06-12h1c0.12 0.91 0.25 1.82 0.38 2.75 0.56 2.94 1.18 4.69 2.62 7.25 1.06 1.97 2.07 3.97 3 6l-1 2 2 1c1.84-1.84 2.22-4.57 3-7h-2v-6h2c-0.34-1.14-0.34-1.14-0.69-2.31-0.31-2.69-0.31-2.69 1-4.38 0.56-0.43 1.12-0.86 1.69-1.31l2-2z" fill="#001C4B"/>
<path transform="translate(791 769)" d="m0 0c6.61 5.49 11.2 13.5 12.2 22.1 0.28 6.44-0.77 11-4.31 16.3-0.56 0.86-1.12 1.73-1.69 2.62-6.23 6.4-12.5 9.52-21.4 9.75-8.16 0.03-13.8-1.79-20-7.17-5.44-5.66-7.94-11.8-8.38-19.6 0.33-8 3.87-15.1 9.33-20.8 10.1-8.44 22.6-9.08 34.2-3.2z" fill="#D41B1E"/>
<path transform="translate(1435 795)" d="m0 0c0.88-0.02 1.77-0.04 2.68-0.07 5.92 0.02 9.55 0.91 14.3 4.51 1.34 2.25 1.34 2.25 1.94 4.56 0.21 0.76 0.43 1.53 0.65 2.32 0.41 2.12 0.41 2.12 0.41 5.12-0.58 0.12-1.15 0.24-1.75 0.37-2.3 0.64-4.19 1.42-6.25 2.63l-1 2 2 1v2c1.6-0.12 3.21-0.24 4.81-0.38 0.9-0.07 1.79-0.14 2.71-0.21 2.72-0.28 2.72-0.28 5.48-2.41l2 4h2l-1 4c-6.29 0.02-12.6 0.04-18.9 0.05-2.14 0.01-4.28 0.01-6.41 0.02-11.6 0.05-23.1 0.05-34.7-1.07v-2h-15v-4l4-2c-1.18-1.42-1.18-1.42-4.56-1.06-1.7 0.03-1.7 0.03-3.44 0.06 0.62-1.94 0.62-1.94 2-4 2.89-0.71 5.66-0.98 8.62-1.19 2.68-0.65 2.68-0.65 4.26-3.63 3.99-5.99 8.99-7.34 15.7-8.93 6.47-1.17 12.8-1.6 19.4-1.69z" fill="#001F50"/>
<path transform="translate(1114,643)" d="m0 0h1v14l2 1c0.03 6.96 0.04 13.9 0.05 20.9 0.01 2.36 0.02 4.73 0.03 7.09 0.01 3.41 0.01 6.82 0.02 10.2 0 1.05 0.01 2.1 0.01 3.18v3.03c0.01 0.87 0.01 1.73 0.01 2.63-0.1 2.45-0.32 4.8-0.62 7.23-0.56 4.81-0.63 9.56-0.61 14.4v2.78c0 3.01 0 6.01 0.01 9.01 0 2.1 0.01 4.19 0.01 6.29 0 5.48 0.01 11 0.02 16.5 0.01 5.61 0.02 11.2 0.02 16.8 0.01 11 0.03 22 0.05 33h-2c-0.17-3.17-0.34-6.33-0.5-9.5-0.05-0.89-0.1-1.77-0.14-2.69-0.78-15-0.78-15 0.64-17.8-1.95 1.95-2.85 3.53-4 6-2.11-5.25-2.39-10-2.56-15.6-0.06-1.68-0.13-3.36-0.19-5.04-0.03-0.74-0.05-1.48-0.08-2.24-0.17-2.13-0.63-4.04-1.17-6.1 0.09-1.88 0.09-1.88 0.38-4 0.75-6.42 0.98-12.8 1.23-19.3 0.03-0.85 0.07-1.69 0.11-2.57 0.03-0.77 0.06-1.54 0.09-2.33 0.19-1.79 0.19-1.79 1.19-2.79 0.26-4.35 0.19-8.71 0.19-13.1 0.02-1.83 0.02-1.83 0.03-3.69 0.02-6.44-0.28-12.1-2.22-18.2-1.48 0.5-1.48 0.5-3 1-2.09-3.41-2.16-5.92-2-9.88 0.08-4.5-0.18-7.94-2-12.1-1.17-3.51-1.45-6.69-1.75-10.4-0.12-1.3-0.24-2.61-0.36-3.96 0.12-3.95 0.72-5.58 3.11-8.66 2.38-1.88 2.38-1.88 5-3 1.67 0.32 3.34 0.65 5 1 1.77-1.35 1.77-1.35 3-3z" fill="#001F50"/>
<path transform="translate(1559,612)" d="m0 0c0.82 0.11 1.64 0.21 2.49 0.32 7.76 1.19 12.2 4.5 17.8 9.87 5.63 9.05 7.92 19.9 6.25 30.4-2.72 9.88-9.86 16.4-18.5 21.4-2.94 1.38-2.94 1.38-6 2-1.18 0.25-1.18 0.25-2.39 0.5-8.96 1.42-15.7-1.35-23.2-6.15-7.21-5.28-12.3-11.6-14.4-20.4-0.84-10.6 2.18-19.6 8.25-28.2 7.82-8 18.6-12.2 29.8-9.81zm-21 10.2c-5.52 4.88-10.3 11.5-11.3 18.9-0.33 7.93 2.3 14.7 7.28 20.8 6.9 6.26 12.9 9.6 22.4 9.38 8.08-1.15 14.7-6.13 19.6-12.4 4.29-6.07 4.38-13 3.82-20.3-1.37-6.95-5.77-12.6-10.6-17.6-10.4-6.82-21.2-6.28-31.2 1.11z" fill="#001F50"/>
<path transform="translate(1559,623)" d="m0 0c5.83 5.06 5.83 5.06 6.2 9.39 0.1 5.91-0.49 9.31-3.2 14.6 0.73 3.49 2.01 6.02 3.75 9.12 1.25 2.88 1.25 2.88 0.44 5.26-0.39 0.53-0.79 1.07-1.19 1.62-2.6-0.37-3.72-0.67-5.45-2.71-0.41-0.69-0.82-1.39-1.24-2.1-0.41-0.69-0.83-1.38-1.26-2.08-1.02-2.04-1.59-3.88-2.05-6.11h-5l-1 14c-1.98-0.66-3.96-1.32-6-2-1.8-6.76-2.25-13.2-2.31-20.2-0.03-1.28-0.03-1.28-0.06-2.59 0.01-5.49 0.69-9.39 3.37-14.2 4.8-3.2 9.48-3.64 15-2z" fill="#002051"/>
<path transform="translate(1337,632)" d="m0 0h3v2h2l-1 3c-0.04 2.33-0.04 4.67 0 7h2c3.73 7.47 1.75 17.4 0.55 25.2-0.81 5.57-1.19 11.2-1.55 16.8h-3c-0.05-0.92-0.1-1.83-0.15-2.77-0.07-1.19-0.15-2.38-0.23-3.61-0.06-1.18-0.13-2.36-0.21-3.58-0.11-3.15-0.11-3.15-2.41-5.04-0.19-2.77-0.26-5.45-0.23-8.22v-2.46c0-1.73 0.01-3.45 0.02-5.17 0.02-2.64 0.02-5.28 0.02-7.92 0.01-1.67 0.02-3.34 0.02-5.01 0-0.79 0-1.59 0.01-2.4 0.04-5.59 0.04-5.59 1.16-7.82z" fill="#001F50"/>
<path transform="translate(1088,738)" d="m0 0h1c0.04 0.9 0.07 1.81 0.11 2.74 0.07 1.18 0.13 2.36 0.2 3.57 0.09 1.76 0.09 1.76 0.18 3.55 0.17 3.12 0.17 3.12 2.01 4.51 3.08 3.35 1.97 8.82 1.94 13.1 0.02 1.06 0.04 2.12 0.06 3.21v3.07 2.82c-0.5 2.4-0.5 2.4-2.53 4.23-0.65 0.38-1.3 0.77-1.97 1.17l-1-1-1 3h-2c-1.05-11.2-0.85-21.8 0.72-32.9 0.29-2.18 0.54-4.35 0.79-6.53 0.49-3.54 0.49-3.54 1.49-4.54z" fill="#001F50"/>
<path transform="translate(641,647)" d="m0 0c1.88 3.27 2.49 6.28 3 10l2-1c1.26 3.79 0.68 6.26 0.06 10.2-0.19 1.27-0.39 2.54-0.59 3.85-0.23 1.47-0.23 1.47-0.47 2.96h-1l-2 26c-0.99-0.33-1.98-0.66-3-1-0.05-6.94-0.09-13.9-0.11-20.8-0.01-2.36-0.02-4.72-0.04-7.08-0.03-3.39-0.04-6.79-0.05-10.2-0.01-1.06-0.02-2.12-0.03-3.21v-2.97c0-1.3 0-1.3-0.01-2.63 0.24-2.1 0.24-2.1 2.24-4.1z" fill="#001F50"/>
<path transform="translate(1088,678)" d="m0 0 2 4 4-1c1.81 2.44 1.81 2.44 3 6-0.98 2.48-2.23 4.53-3.7 6.75-1.41 2.44-1.8 4.5-2.3 7.25-1.44 1.56-1.44 1.56-3 3-1.18 2.1-1.18 2.1-2 4-1.33-4.64-1.18-9.15-1.19-13.9-0.01-0.89-0.02-1.79-0.03-2.71-0.01-4.53 0-8.26 2.22-12.4l1-1z" fill="#001F50"/>
<path transform="translate(174,737)" d="m0 0 1 2c-0.66 1.67-1.33 3.34-2 5v4h2v3.75c0.16 2.22 0.16 2.22 1 4.25 2.47 1.9 5.07 2.99 8 4-2 2-2 2-5.26 2.2-1.27-0.03-2.55-0.05-3.86-0.08-1.93-0.02-1.93-0.02-3.89-0.05-1.48-0.03-1.48-0.03-2.99-0.07-1.42-7.86-0.62-14.8 3-22h2l1-3z" fill="#001F50"/>
<path transform="translate(1079,642)" d="m0 0h1c1.04 7.93 1.29 15.8 1.5 23.8 0.22 8.25 0.51 16.4 1.34 24.6 0.23 3.64-0.22 6.96-0.84 10.6h-1l-1 15h-1v-74z" fill="#002051"/>
<path transform="translate(641,798)" d="m0 0h1v87h-1v-6h-2v-24h1c0-0.68 0-1.37-0.01-2.07-0.02-7.11-0.03-14.2-0.04-21.3-0.01-2.65-0.02-5.31-0.03-7.96-0.01-3.81-0.01-7.62-0.02-11.4 0-1.2-0.01-2.39-0.01-3.62v-3.33c-0.01-0.98-0.01-1.95-0.01-2.95 0.12-2.33 0.12-2.33 1.12-4.33z" fill="#001F50"/>
<path transform="translate(1385,982)" d="m0 0-1 2c0.56-0.23 1.11-0.45 1.69-0.69 3.23-0.43 4.7 0.88 7.31 2.69-2 2-2 2-5.27 2.01-1.31-0.11-2.63-0.21-3.98-0.32-1.3-0.1-2.61-0.2-3.95-0.3-3.31-0.34-6.54-0.8-9.8-1.39l3-2c0.62-0.52 1.24-1.03 1.88-1.56 3.93-2.67 6.13-3.1 10.1-0.44z" fill="#001F50"/>
<path transform="translate(1551,630)" d="m0 0c2.38-0.12 2.38-0.12 5 0 2 2 2 2 2.25 5.5-0.25 3.5-0.25 3.5-2.25 5.5-3.12-0.38-3.12-0.38-6-1-1.11-3.32-0.85-4.68 0-8l1-2z" fill="#FBFEFE"/>
<path transform="translate(1269,935)" d="m0 0h5c-11.4 13.9-11.4 13.9-18 15h-2v-2h3c0.25-0.58 0.49-1.15 0.75-1.75 1.42-2.55 3.13-4.27 5.25-6.25h-2l1-2 5 1 2-4z" fill="#001C4C"/>
<path transform="translate(1460,816)" d="m0 0 3 2v2h2l-1 4h-13v-2l-5-1v-1c0.68-0.04 1.35-0.07 2.05-0.11 0.89-0.07 1.78-0.13 2.7-0.2 0.88-0.06 1.76-0.12 2.67-0.18 2.9-0.57 4.37-1.59 6.58-3.51z" fill="#001E4E"/>
<path transform="translate(492,859)" d="m0 0 1 2c-17.1 7.96-17.1 7.96-23 6h2v-2h5v-2c1.56-0.68 3.12-1.34 4.69-2 0.87-0.37 1.74-0.74 2.63-1.12 2.74-0.9 4.83-1.04 7.68-0.88z" fill="#001C4B"/>
<path transform="translate(1112,716)" d="m0 0h2c0.06 3.1 0.09 6.21 0.12 9.31 0.03 1.32 0.03 1.32 0.06 2.67 0 0.85 0.01 1.7 0.02 2.57 0.01 1.17 0.01 1.17 0.03 2.37-0.23 2.08-0.23 2.08-2.23 5.08-0.78-2.76-1.13-5.21-1.13-8.07 0-0.75-0.01-1.5-0.01-2.28 0.01-0.77 0.01-1.54 0.02-2.34-0.01-0.78-0.01-1.57-0.02-2.37 0.01-5.81 0.01-5.81 1.14-6.94z" fill="#001C4B"/>
<path transform="translate(870,694)" d="m0 0h1v22h-1c-0.06-0.58-0.12-1.16-0.18-1.76-0.38-3.52-0.78-7-1.38-10.5-0.42-2.64-0.52-5.09-0.44-7.75h2v-2z" fill="#001F50"/>
<path transform="translate(1087,667)" d="m0 0c2.47 0.99 2.47 0.99 5 2v9c-2.47-0.99-2.47-0.99-5-2v-9z" fill="#001F50"/>
<path transform="translate(1400,973)" d="m0 0c-0.99 0.5-0.99 0.5-2 1v2h-2l-1 3-5-5c3.58-2.34 5.92-1.93 10-1z" fill="#001F50"/>
<path transform="translate(1265,815)" d="m0 0c2.49 1.2 4.68 2.45 7 4v3l4 2v3c-1.71-1.28-3.37-2.62-5-4v-2h-2c-1.39-1.96-2.73-3.96-4-6z" fill="#001C4B"/>
</svg>
